<svg viewBox="0 0 300 300" xmlns="http://www.w3.org/2000/svg" style="width: 100%; height: 100%; background-color: rgb(255, 255, 255);"><svg fill="#011d6f" xmlns="http://www.w3.org/2000/svg" width="300" height="300" viewBox="0 0 300 300"><path d="M253.83.69H46.09A11.28,11.28,0,0,0,34.77,12V219.83a11.33,11.33,0,0,0,11.32,11.31H253.91a11.33,11.33,0,0,0,11.32-11.31V12A11.41,11.41,0,0,0,253.83.69Zm2.64,215.59a6.1,6.1,0,0,1-6.11,6.11H49.55a6.1,6.1,0,0,1-6.11-6.11V15.47a6.1,6.1,0,0,1,6.11-6.11H250.36a6.09,6.09,0,0,1,6.11,6.11Z"/><path d="M64.42,246.09A23.53,23.53,0,1,0,88,269.62a23.47,23.47,0,0,0-23.53-23.53Z" id="IconCircleOutline" fill-opacity="0"/><path id="PhoneIcon" d="M74.57,254.59v29.73a3.39,3.39,0,0,1-3.38,3.38H56.57a3.39,3.39,0,0,1-3.38-3.38V254.59a3.39,3.39,0,0,1,3.38-3.38H71.19A3.46,3.46,0,0,1,74.57,254.59Zm-15.11.17A1.57,1.57,0,0,0,61,256.33h5.62a1.57,1.57,0,0,0,1.56-1.57,1.62,1.62,0,0,0-1.56-1.57H61.11A1.59,1.59,0,0,0,59.46,254.76ZM72,258.64l-16.43-.17v22H72Zm-10.4,25.43a2.23,2.23,0,1,0,2.23-2.23A2.22,2.22,0,0,0,61.61,284.07Z"/><path id="PhoneIconBlack" d="M74.57,254.59v29.73a3.39,3.39,0,0,1-3.38,3.38H56.57a3.39,3.39,0,0,1-3.38-3.38V254.59a3.39,3.39,0,0,1,3.38-3.38H71.19A3.46,3.46,0,0,1,74.57,254.59Zm-15.11.17A1.57,1.57,0,0,0,61,256.33h5.62a1.57,1.57,0,0,0,1.56-1.57,1.62,1.62,0,0,0-1.56-1.57H61.11A1.59,1.59,0,0,0,59.46,254.76ZM72,258.64l-16.43-.17v22H72Zm-10.4,25.43a2.23,2.23,0,1,0,2.23-2.23A2.22,2.22,0,0,0,61.61,284.07Z" fill-opacity="0"/><path d="M235.5,240H64.42a29.68,29.68,0,0,0,0,59.36h171A29.68,29.68,0,0,0,235.5,240ZM64.42,293.15A23.53,23.53,0,1,1,88,269.62,23.47,23.47,0,0,1,64.42,293.15Z"/><g transform="translate(46.5, 12.5)scale(0.687)"><svg width="300" height="300"><defs><clipPath id="clip-path-dot-color"><rect x="5" y="85" width="10" height="10" transform="rotate(0,10,90)"/><rect x="5" y="105" width="10" height="10" transform="rotate(0,10,110)"/><rect x="5" y="165" width="10" height="10" transform="rotate(0,10,170)"/><rect x="5" y="175" width="10" height="10" transform="rotate(0,10,180)"/><rect x="15" y="105" width="10" height="10" transform="rotate(0,20,110)"/><rect x="15" y="115" width="10" height="10" transform="rotate(0,20,120)"/><rect x="15" y="155" width="10" height="10" transform="rotate(0,20,160)"/><rect x="15" y="205" width="10" height="10" transform="rotate(0,20,210)"/><rect x="25" y="125" width="10" height="10" transform="rotate(0,30,130)"/><rect x="25" y="145" width="10" height="10" transform="rotate(0,30,150)"/><rect x="25" y="155" width="10" height="10" transform="rotate(0,30,160)"/><rect x="35" y="115" width="10" height="10" transform="rotate(0,40,120)"/><rect x="35" y="145" width="10" height="10" transform="rotate(0,40,150)"/><rect x="35" y="165" width="10" height="10" transform="rotate(0,40,170)"/><rect x="35" y="175" width="10" height="10" transform="rotate(0,40,180)"/><rect x="45" y="85" width="10" height="10" transform="rotate(0,50,90)"/><rect x="45" y="95" width="10" height="10" transform="rotate(0,50,100)"/><rect x="45" y="105" width="10" height="10" transform="rotate(0,50,110)"/><rect x="45" y="125" width="10" height="10" transform="rotate(0,50,130)"/><rect x="45" y="135" width="10" height="10" transform="rotate(0,50,140)"/><rect x="45" y="155" width="10" height="10" transform="rotate(0,50,160)"/><rect x="45" y="165" width="10" height="10" transform="rotate(0,50,170)"/><rect x="45" y="175" width="10" height="10" transform="rotate(0,50,180)"/><rect x="45" y="195" width="10" height="10" transform="rotate(0,50,200)"/><rect x="55" y="85" width="10" height="10" transform="rotate(0,60,90)"/><rect x="55" y="95" width="10" height="10" transform="rotate(0,60,100)"/><rect x="55" y="115" width="10" height="10" transform="rotate(0,60,120)"/><rect x="55" y="135" width="10" height="10" transform="rotate(0,60,140)"/><rect x="55" y="145" width="10" height="10" transform="rotate(0,60,150)"/><rect x="55" y="155" width="10" height="10" transform="rotate(0,60,160)"/><rect x="55" y="175" width="10" height="10" transform="rotate(0,60,180)"/><rect x="55" y="205" width="10" height="10" transform="rotate(0,60,210)"/><rect x="65" y="85" width="10" height="10" transform="rotate(0,70,90)"/><rect x="65" y="105" width="10" height="10" transform="rotate(0,70,110)"/><rect x="65" y="125" width="10" height="10" transform="rotate(0,70,130)"/><rect x="65" y="145" width="10" height="10" transform="rotate(0,70,150)"/><rect x="65" y="165" width="10" height="10" transform="rotate(0,70,170)"/><rect x="65" y="185" width="10" height="10" transform="rotate(0,70,190)"/><rect x="65" y="205" width="10" height="10" transform="rotate(0,70,210)"/><rect x="75" y="105" width="10" height="10" transform="rotate(0,80,110)"/><rect x="75" y="125" width="10" height="10" transform="rotate(0,80,130)"/><rect x="75" y="135" width="10" height="10" transform="rotate(0,80,140)"/><rect x="75" y="165" width="10" height="10" transform="rotate(0,80,170)"/><rect x="75" y="175" width="10" height="10" transform="rotate(0,80,180)"/><rect x="75" y="185" width="10" height="10" transform="rotate(0,80,190)"/><rect x="75" y="205" width="10" height="10" transform="rotate(0,80,210)"/><rect x="85" y="15" width="10" height="10" transform="rotate(0,90,20)"/><rect x="85" y="25" width="10" height="10" transform="rotate(0,90,30)"/><rect x="85" y="35" width="10" height="10" transform="rotate(0,90,40)"/><rect x="85" y="45" width="10" height="10" transform="rotate(0,90,50)"/><rect x="85" y="55" width="10" height="10" transform="rotate(0,90,60)"/><rect x="85" y="65" width="10" height="10" transform="rotate(0,90,70)"/><rect x="85" y="75" width="10" height="10" transform="rotate(0,90,80)"/><rect x="85" y="95" width="10" height="10" transform="rotate(0,90,100)"/><rect x="85" y="105" width="10" height="10" transform="rotate(0,90,110)"/><rect x="85" y="125" width="10" height="10" transform="rotate(0,90,130)"/><rect x="85" y="145" width="10" height="10" transform="rotate(0,90,150)"/><rect x="85" y="155" width="10" height="10" transform="rotate(0,90,160)"/><rect x="85" y="235" width="10" height="10" transform="rotate(0,90,240)"/><rect x="85" y="245" width="10" height="10" transform="rotate(0,90,250)"/><rect x="85" y="285" width="10" height="10" transform="rotate(0,90,290)"/><rect x="95" y="25" width="10" height="10" transform="rotate(0,100,30)"/><rect x="95" y="45" width="10" height="10" transform="rotate(0,100,50)"/><rect x="95" y="85" width="10" height="10" transform="rotate(0,100,90)"/><rect x="95" y="95" width="10" height="10" transform="rotate(0,100,100)"/><rect x="95" y="105" width="10" height="10" transform="rotate(0,100,110)"/><rect x="95" y="125" width="10" height="10" transform="rotate(0,100,130)"/><rect x="95" y="185" width="10" height="10" transform="rotate(0,100,190)"/><rect x="95" y="205" width="10" height="10" transform="rotate(0,100,210)"/><rect x="95" y="215" width="10" height="10" transform="rotate(0,100,220)"/><rect x="95" y="235" width="10" height="10" transform="rotate(0,100,240)"/><rect x="95" y="245" width="10" height="10" transform="rotate(0,100,250)"/><rect x="95" y="255" width="10" height="10" transform="rotate(0,100,260)"/><rect x="95" y="265" width="10" height="10" transform="rotate(0,100,270)"/><rect x="95" y="285" width="10" height="10" transform="rotate(0,100,290)"/><rect x="105" y="5" width="10" height="10" transform="rotate(0,110,10)"/><rect x="105" y="15" width="10" height="10" transform="rotate(0,110,20)"/><rect x="105" y="35" width="10" height="10" transform="rotate(0,110,40)"/><rect x="105" y="45" width="10" height="10" transform="rotate(0,110,50)"/><rect x="105" y="55" width="10" height="10" transform="rotate(0,110,60)"/><rect x="105" y="65" width="10" height="10" transform="rotate(0,110,70)"/><rect x="105" y="75" width="10" height="10" transform="rotate(0,110,80)"/><rect x="105" y="105" width="10" height="10" transform="rotate(0,110,110)"/><rect x="105" y="135" width="10" height="10" transform="rotate(0,110,140)"/><rect x="105" y="165" width="10" height="10" transform="rotate(0,110,170)"/><rect x="105" y="185" width="10" height="10" transform="rotate(0,110,190)"/><rect x="105" y="195" width="10" height="10" transform="rotate(0,110,200)"/><rect x="105" y="215" width="10" height="10" transform="rotate(0,110,220)"/><rect x="105" y="225" width="10" height="10" transform="rotate(0,110,230)"/><rect x="105" y="255" width="10" height="10" transform="rotate(0,110,260)"/><rect x="105" y="265" width="10" height="10" transform="rotate(0,110,270)"/><rect x="115" y="25" width="10" height="10" transform="rotate(0,120,30)"/><rect x="115" y="35" width="10" height="10" transform="rotate(0,120,40)"/><rect x="115" y="95" width="10" height="10" transform="rotate(0,120,100)"/><rect x="115" y="115" width="10" height="10" transform="rotate(0,120,120)"/><rect x="115" y="155" width="10" height="10" transform="rotate(0,120,160)"/><rect x="115" y="165" width="10" height="10" transform="rotate(0,120,170)"/><rect x="115" y="195" width="10" height="10" transform="rotate(0,120,200)"/><rect x="115" y="205" width="10" height="10" transform="rotate(0,120,210)"/><rect x="115" y="215" width="10" height="10" transform="rotate(0,120,220)"/><rect x="115" y="225" width="10" height="10" transform="rotate(0,120,230)"/><rect x="115" y="245" width="10" height="10" transform="rotate(0,120,250)"/><rect x="115" y="275" width="10" height="10" transform="rotate(0,120,280)"/><rect x="125" y="5" width="10" height="10" transform="rotate(0,130,10)"/><rect x="125" y="55" width="10" height="10" transform="rotate(0,130,60)"/><rect x="125" y="65" width="10" height="10" transform="rotate(0,130,70)"/><rect x="125" y="75" width="10" height="10" transform="rotate(0,130,80)"/><rect x="125" y="95" width="10" height="10" transform="rotate(0,130,100)"/><rect x="125" y="115" width="10" height="10" transform="rotate(0,130,120)"/><rect x="125" y="125" width="10" height="10" transform="rotate(0,130,130)"/><rect x="125" y="145" width="10" height="10" transform="rotate(0,130,150)"/><rect x="125" y="155" width="10" height="10" transform="rotate(0,130,160)"/><rect x="125" y="175" width="10" height="10" transform="rotate(0,130,180)"/><rect x="125" y="195" width="10" height="10" transform="rotate(0,130,200)"/><rect x="125" y="215" width="10" height="10" transform="rotate(0,130,220)"/><rect x="125" y="235" width="10" height="10" transform="rotate(0,130,240)"/><rect x="125" y="255" width="10" height="10" transform="rotate(0,130,260)"/><rect x="125" y="265" width="10" height="10" transform="rotate(0,130,270)"/><rect x="125" y="275" width="10" height="10" transform="rotate(0,130,280)"/><rect x="125" y="285" width="10" height="10" transform="rotate(0,130,290)"/><rect x="135" y="15" width="10" height="10" transform="rotate(0,140,20)"/><rect x="135" y="35" width="10" height="10" transform="rotate(0,140,40)"/><rect x="135" y="55" width="10" height="10" transform="rotate(0,140,60)"/><rect x="135" y="85" width="10" height="10" transform="rotate(0,140,90)"/><rect x="135" y="95" width="10" height="10" transform="rotate(0,140,100)"/><rect x="135" y="115" width="10" height="10" transform="rotate(0,140,120)"/><rect x="135" y="135" width="10" height="10" transform="rotate(0,140,140)"/><rect x="135" y="155" width="10" height="10" transform="rotate(0,140,160)"/><rect x="135" y="165" width="10" height="10" transform="rotate(0,140,170)"/><rect x="135" y="195" width="10" height="10" transform="rotate(0,140,200)"/><rect x="135" y="205" width="10" height="10" transform="rotate(0,140,210)"/><rect x="135" y="215" width="10" height="10" transform="rotate(0,140,220)"/><rect x="135" y="225" width="10" height="10" transform="rotate(0,140,230)"/><rect x="135" y="245" width="10" height="10" transform="rotate(0,140,250)"/><rect x="135" y="255" width="10" height="10" transform="rotate(0,140,260)"/><rect x="135" y="275" width="10" height="10" transform="rotate(0,140,280)"/><rect x="135" y="285" width="10" height="10" transform="rotate(0,140,290)"/><rect x="145" y="5" width="10" height="10" transform="rotate(0,150,10)"/><rect x="145" y="15" width="10" height="10" transform="rotate(0,150,20)"/><rect x="145" y="35" width="10" height="10" transform="rotate(0,150,40)"/><rect x="145" y="45" width="10" height="10" transform="rotate(0,150,50)"/><rect x="145" y="65" width="10" height="10" transform="rotate(0,150,70)"/><rect x="145" y="75" width="10" height="10" transform="rotate(0,150,80)"/><rect x="145" y="105" width="10" height="10" transform="rotate(0,150,110)"/><rect x="145" y="135" width="10" height="10" transform="rotate(0,150,140)"/><rect x="145" y="155" width="10" height="10" transform="rotate(0,150,160)"/><rect x="145" y="185" width="10" height="10" transform="rotate(0,150,190)"/><rect x="145" y="205" width="10" height="10" transform="rotate(0,150,210)"/><rect x="145" y="215" width="10" height="10" transform="rotate(0,150,220)"/><rect x="145" y="235" width="10" height="10" transform="rotate(0,150,240)"/><rect x="145" y="275" width="10" height="10" transform="rotate(0,150,280)"/><rect x="155" y="5" width="10" height="10" transform="rotate(0,160,10)"/><rect x="155" y="25" width="10" height="10" transform="rotate(0,160,30)"/><rect x="155" y="35" width="10" height="10" transform="rotate(0,160,40)"/><rect x="155" y="45" width="10" height="10" transform="rotate(0,160,50)"/><rect x="155" y="55" width="10" height="10" transform="rotate(0,160,60)"/><rect x="155" y="95" width="10" height="10" transform="rotate(0,160,100)"/><rect x="155" y="125" width="10" height="10" transform="rotate(0,160,130)"/><rect x="155" y="145" width="10" height="10" transform="rotate(0,160,150)"/><rect x="155" y="155" width="10" height="10" transform="rotate(0,160,160)"/><rect x="155" y="205" width="10" height="10" transform="rotate(0,160,210)"/><rect x="155" y="245" width="10" height="10" transform="rotate(0,160,250)"/><rect x="155" y="255" width="10" height="10" transform="rotate(0,160,260)"/><rect x="165" y="5" width="10" height="10" transform="rotate(0,170,10)"/><rect x="165" y="15" width="10" height="10" transform="rotate(0,170,20)"/><rect x="165" y="35" width="10" height="10" transform="rotate(0,170,40)"/><rect x="165" y="65" width="10" height="10" transform="rotate(0,170,70)"/><rect x="165" y="75" width="10" height="10" transform="rotate(0,170,80)"/><rect x="165" y="105" width="10" height="10" transform="rotate(0,170,110)"/><rect x="165" y="125" width="10" height="10" transform="rotate(0,170,130)"/><rect x="165" y="135" width="10" height="10" transform="rotate(0,170,140)"/><rect x="165" y="185" width="10" height="10" transform="rotate(0,170,190)"/><rect x="165" y="195" width="10" height="10" transform="rotate(0,170,200)"/><rect x="165" y="235" width="10" height="10" transform="rotate(0,170,240)"/><rect x="165" y="255" width="10" height="10" transform="rotate(0,170,260)"/><rect x="165" y="265" width="10" height="10" transform="rotate(0,170,270)"/><rect x="165" y="285" width="10" height="10" transform="rotate(0,170,290)"/><rect x="175" y="5" width="10" height="10" transform="rotate(0,180,10)"/><rect x="175" y="15" width="10" height="10" transform="rotate(0,180,20)"/><rect x="175" y="25" width="10" height="10" transform="rotate(0,180,30)"/><rect x="175" y="35" width="10" height="10" transform="rotate(0,180,40)"/><rect x="175" y="45" width="10" height="10" transform="rotate(0,180,50)"/><rect x="175" y="75" width="10" height="10" transform="rotate(0,180,80)"/><rect x="175" y="105" width="10" height="10" transform="rotate(0,180,110)"/><rect x="175" y="115" width="10" height="10" transform="rotate(0,180,120)"/><rect x="175" y="125" width="10" height="10" transform="rotate(0,180,130)"/><rect x="175" y="135" width="10" height="10" transform="rotate(0,180,140)"/><rect x="175" y="155" width="10" height="10" transform="rotate(0,180,160)"/><rect x="175" y="165" width="10" height="10" transform="rotate(0,180,170)"/><rect x="175" y="215" width="10" height="10" transform="rotate(0,180,220)"/><rect x="175" y="225" width="10" height="10" transform="rotate(0,180,230)"/><rect x="175" y="235" width="10" height="10" transform="rotate(0,180,240)"/><rect x="175" y="245" width="10" height="10" transform="rotate(0,180,250)"/><rect x="175" y="265" width="10" height="10" transform="rotate(0,180,270)"/><rect x="175" y="275" width="10" height="10" transform="rotate(0,180,280)"/><rect x="175" y="285" width="10" height="10" transform="rotate(0,180,290)"/><rect x="185" y="5" width="10" height="10" transform="rotate(0,190,10)"/><rect x="185" y="35" width="10" height="10" transform="rotate(0,190,40)"/><rect x="185" y="55" width="10" height="10" transform="rotate(0,190,60)"/><rect x="185" y="65" width="10" height="10" transform="rotate(0,190,70)"/><rect x="185" y="75" width="10" height="10" transform="rotate(0,190,80)"/><rect x="185" y="95" width="10" height="10" transform="rotate(0,190,100)"/><rect x="185" y="125" width="10" height="10" transform="rotate(0,190,130)"/><rect x="185" y="135" width="10" height="10" transform="rotate(0,190,140)"/><rect x="185" y="175" width="10" height="10" transform="rotate(0,190,180)"/><rect x="185" y="185" width="10" height="10" transform="rotate(0,190,190)"/><rect x="185" y="205" width="10" height="10" transform="rotate(0,190,210)"/><rect x="185" y="225" width="10" height="10" transform="rotate(0,190,230)"/><rect x="185" y="235" width="10" height="10" transform="rotate(0,190,240)"/><rect x="185" y="255" width="10" height="10" transform="rotate(0,190,260)"/><rect x="195" y="5" width="10" height="10" transform="rotate(0,200,10)"/><rect x="195" y="25" width="10" height="10" transform="rotate(0,200,30)"/><rect x="195" y="45" width="10" height="10" transform="rotate(0,200,50)"/><rect x="195" y="75" width="10" height="10" transform="rotate(0,200,80)"/><rect x="195" y="85" width="10" height="10" transform="rotate(0,200,90)"/><rect x="195" y="95" width="10" height="10" transform="rotate(0,200,100)"/><rect x="195" y="145" width="10" height="10" transform="rotate(0,200,150)"/><rect x="195" y="165" width="10" height="10" transform="rotate(0,200,170)"/><rect x="195" y="185" width="10" height="10" transform="rotate(0,200,190)"/><rect x="195" y="205" width="10" height="10" transform="rotate(0,200,210)"/><rect x="195" y="225" width="10" height="10" transform="rotate(0,200,230)"/><rect x="195" y="245" width="10" height="10" transform="rotate(0,200,250)"/><rect x="195" y="255" width="10" height="10" transform="rotate(0,200,260)"/><rect x="205" y="5" width="10" height="10" transform="rotate(0,210,10)"/><rect x="205" y="35" width="10" height="10" transform="rotate(0,210,40)"/><rect x="205" y="45" width="10" height="10" transform="rotate(0,210,50)"/><rect x="205" y="55" width="10" height="10" transform="rotate(0,210,60)"/><rect x="205" y="65" width="10" height="10" transform="rotate(0,210,70)"/><rect x="205" y="75" width="10" height="10" transform="rotate(0,210,80)"/><rect x="205" y="85" width="10" height="10" transform="rotate(0,210,90)"/><rect x="205" y="95" width="10" height="10" transform="rotate(0,210,100)"/><rect x="205" y="105" width="10" height="10" transform="rotate(0,210,110)"/><rect x="205" y="125" width="10" height="10" transform="rotate(0,210,130)"/><rect x="205" y="145" width="10" height="10" transform="rotate(0,210,150)"/><rect x="205" y="175" width="10" height="10" transform="rotate(0,210,180)"/><rect x="205" y="185" width="10" height="10" transform="rotate(0,210,190)"/><rect x="205" y="205" width="10" height="10" transform="rotate(0,210,210)"/><rect x="205" y="215" width="10" height="10" transform="rotate(0,210,220)"/><rect x="205" y="225" width="10" height="10" transform="rotate(0,210,230)"/><rect x="205" y="235" width="10" height="10" transform="rotate(0,210,240)"/><rect x="205" y="245" width="10" height="10" transform="rotate(0,210,250)"/><rect x="205" y="275" width="10" height="10" transform="rotate(0,210,280)"/><rect x="205" y="285" width="10" height="10" transform="rotate(0,210,290)"/><rect x="215" y="85" width="10" height="10" transform="rotate(0,220,90)"/><rect x="215" y="95" width="10" height="10" transform="rotate(0,220,100)"/><rect x="215" y="135" width="10" height="10" transform="rotate(0,220,140)"/><rect x="215" y="145" width="10" height="10" transform="rotate(0,220,150)"/><rect x="215" y="165" width="10" height="10" transform="rotate(0,220,170)"/><rect x="215" y="175" width="10" height="10" transform="rotate(0,220,180)"/><rect x="215" y="185" width="10" height="10" transform="rotate(0,220,190)"/><rect x="215" y="205" width="10" height="10" transform="rotate(0,220,210)"/><rect x="215" y="245" width="10" height="10" transform="rotate(0,220,250)"/><rect x="215" y="255" width="10" height="10" transform="rotate(0,220,260)"/><rect x="215" y="275" width="10" height="10" transform="rotate(0,220,280)"/><rect x="215" y="285" width="10" height="10" transform="rotate(0,220,290)"/><rect x="225" y="85" width="10" height="10" transform="rotate(0,230,90)"/><rect x="225" y="125" width="10" height="10" transform="rotate(0,230,130)"/><rect x="225" y="145" width="10" height="10" transform="rotate(0,230,150)"/><rect x="225" y="155" width="10" height="10" transform="rotate(0,230,160)"/><rect x="225" y="165" width="10" height="10" transform="rotate(0,230,170)"/><rect x="225" y="175" width="10" height="10" transform="rotate(0,230,180)"/><rect x="225" y="195" width="10" height="10" transform="rotate(0,230,200)"/><rect x="225" y="205" width="10" height="10" transform="rotate(0,230,210)"/><rect x="225" y="225" width="10" height="10" transform="rotate(0,230,230)"/><rect x="225" y="245" width="10" height="10" transform="rotate(0,230,250)"/><rect x="235" y="85" width="10" height="10" transform="rotate(0,240,90)"/><rect x="235" y="135" width="10" height="10" transform="rotate(0,240,140)"/><rect x="235" y="145" width="10" height="10" transform="rotate(0,240,150)"/><rect x="235" y="175" width="10" height="10" transform="rotate(0,240,180)"/><rect x="235" y="185" width="10" height="10" transform="rotate(0,240,190)"/><rect x="235" y="195" width="10" height="10" transform="rotate(0,240,200)"/><rect x="235" y="205" width="10" height="10" transform="rotate(0,240,210)"/><rect x="235" y="245" width="10" height="10" transform="rotate(0,240,250)"/><rect x="235" y="255" width="10" height="10" transform="rotate(0,240,260)"/><rect x="235" y="285" width="10" height="10" transform="rotate(0,240,290)"/><rect x="245" y="85" width="10" height="10" transform="rotate(0,250,90)"/><rect x="245" y="105" width="10" height="10" transform="rotate(0,250,110)"/><rect x="245" y="125" width="10" height="10" transform="rotate(0,250,130)"/><rect x="245" y="135" width="10" height="10" transform="rotate(0,250,140)"/><rect x="245" y="145" width="10" height="10" transform="rotate(0,250,150)"/><rect x="245" y="155" width="10" height="10" transform="rotate(0,250,160)"/><rect x="245" y="165" width="10" height="10" transform="rotate(0,250,170)"/><rect x="245" y="205" width="10" height="10" transform="rotate(0,250,210)"/><rect x="245" y="215" width="10" height="10" transform="rotate(0,250,220)"/><rect x="245" y="225" width="10" height="10" transform="rotate(0,250,230)"/><rect x="245" y="235" width="10" height="10" transform="rotate(0,250,240)"/><rect x="245" y="245" width="10" height="10" transform="rotate(0,250,250)"/><rect x="245" y="255" width="10" height="10" transform="rotate(0,250,260)"/><rect x="245" y="265" width="10" height="10" transform="rotate(0,250,270)"/><rect x="245" y="285" width="10" height="10" transform="rotate(0,250,290)"/><rect x="255" y="85" width="10" height="10" transform="rotate(0,260,90)"/><rect x="255" y="95" width="10" height="10" transform="rotate(0,260,100)"/><rect x="255" y="105" width="10" height="10" transform="rotate(0,260,110)"/><rect x="255" y="115" width="10" height="10" transform="rotate(0,260,120)"/><rect x="255" y="145" width="10" height="10" transform="rotate(0,260,150)"/><rect x="255" y="155" width="10" height="10" transform="rotate(0,260,160)"/><rect x="255" y="175" width="10" height="10" transform="rotate(0,260,180)"/><rect x="255" y="185" width="10" height="10" transform="rotate(0,260,190)"/><rect x="255" y="195" width="10" height="10" transform="rotate(0,260,200)"/><rect x="255" y="205" width="10" height="10" transform="rotate(0,260,210)"/><rect x="255" y="215" width="10" height="10" transform="rotate(0,260,220)"/><rect x="255" y="235" width="10" height="10" transform="rotate(0,260,240)"/><rect x="255" y="255" width="10" height="10" transform="rotate(0,260,260)"/><rect x="255" y="265" width="10" height="10" transform="rotate(0,260,270)"/><rect x="265" y="85" width="10" height="10" transform="rotate(0,270,90)"/><rect x="265" y="95" width="10" height="10" transform="rotate(0,270,100)"/><rect x="265" y="115" width="10" height="10" transform="rotate(0,270,120)"/><rect x="265" y="155" width="10" height="10" transform="rotate(0,270,160)"/><rect x="265" y="165" width="10" height="10" transform="rotate(0,270,170)"/><rect x="265" y="175" width="10" height="10" transform="rotate(0,270,180)"/><rect x="265" y="195" width="10" height="10" transform="rotate(0,270,200)"/><rect x="265" y="205" width="10" height="10" transform="rotate(0,270,210)"/><rect x="265" y="215" width="10" height="10" transform="rotate(0,270,220)"/><rect x="265" y="225" width="10" height="10" transform="rotate(0,270,230)"/><rect x="265" y="235" width="10" height="10" transform="rotate(0,270,240)"/><rect x="265" y="245" width="10" height="10" transform="rotate(0,270,250)"/><rect x="265" y="255" width="10" height="10" transform="rotate(0,270,260)"/><rect x="265" y="275" width="10" height="10" transform="rotate(0,270,280)"/><rect x="275" y="85" width="10" height="10" transform="rotate(0,280,90)"/><rect x="275" y="125" width="10" height="10" transform="rotate(0,280,130)"/><rect x="275" y="145" width="10" height="10" transform="rotate(0,280,150)"/><rect x="275" y="155" width="10" height="10" transform="rotate(0,280,160)"/><rect x="275" y="185" width="10" height="10" transform="rotate(0,280,190)"/><rect x="275" y="195" width="10" height="10" transform="rotate(0,280,200)"/><rect x="275" y="215" width="10" height="10" transform="rotate(0,280,220)"/><rect x="275" y="245" width="10" height="10" transform="rotate(0,280,250)"/><rect x="275" y="255" width="10" height="10" transform="rotate(0,280,260)"/><rect x="275" y="275" width="10" height="10" transform="rotate(0,280,280)"/><rect x="285" y="105" width="10" height="10" transform="rotate(0,290,110)"/><rect x="285" y="125" width="10" height="10" transform="rotate(0,290,130)"/><rect x="285" y="145" width="10" height="10" transform="rotate(0,290,150)"/><rect x="285" y="155" width="10" height="10" transform="rotate(0,290,160)"/><rect x="285" y="175" width="10" height="10" transform="rotate(0,290,180)"/><rect x="285" y="195" width="10" height="10" transform="rotate(0,290,200)"/><rect x="285" y="225" width="10" height="10" transform="rotate(0,290,230)"/><rect x="285" y="245" width="10" height="10" transform="rotate(0,290,250)"/></clipPath><clipPath id="clip-path-corners-square-color-0-0"><path clip-rule="evenodd" d="M 5 30v 20a 25 25, 0, 0, 0, 25 25h 20a 25 25, 0, 0, 0, 25 -25v -20a 25 25, 0, 0, 0, -25 -25h -20a 25 25, 0, 0, 0, -25 25M 30 15h 20a 15 15, 0, 0, 1, 15 15v 20a 15 15, 0, 0, 1, -15 15h -20a 15 15, 0, 0, 1, -15 -15v -20a 15 15, 0, 0, 1, 15 -15" transform="rotate(0,40,40)"/></clipPath><clipPath id="clip-path-corners-dot-color-0-0"><rect x="25" y="25" width="30" height="30" transform="rotate(0,40,40)"/></clipPath><clipPath id="clip-path-corners-square-color-1-0"><path clip-rule="evenodd" d="M 225 30v 20a 25 25, 0, 0, 0, 25 25h 20a 25 25, 0, 0, 0, 25 -25v -20a 25 25, 0, 0, 0, -25 -25h -20a 25 25, 0, 0, 0, -25 25M 250 15h 20a 15 15, 0, 0, 1, 15 15v 20a 15 15, 0, 0, 1, -15 15h -20a 15 15, 0, 0, 1, -15 -15v -20a 15 15, 0, 0, 1, 15 -15" transform="rotate(90,260,40)"/></clipPath><clipPath id="clip-path-corners-dot-color-1-0"><rect x="245" y="25" width="30" height="30" transform="rotate(90,260,40)"/></clipPath><clipPath id="clip-path-corners-square-color-0-1"><path clip-rule="evenodd" d="M 5 250v 20a 25 25, 0, 0, 0, 25 25h 20a 25 25, 0, 0, 0, 25 -25v -20a 25 25, 0, 0, 0, -25 -25h -20a 25 25, 0, 0, 0, -25 25M 30 235h 20a 15 15, 0, 0, 1, 15 15v 20a 15 15, 0, 0, 1, -15 15h -20a 15 15, 0, 0, 1, -15 -15v -20a 15 15, 0, 0, 1, 15 -15" transform="rotate(-90,40,260)"/></clipPath><clipPath id="clip-path-corners-dot-color-0-1"><rect x="25" y="245" width="30" height="30" transform="rotate(-90,40,260)"/></clipPath></defs><rect x="0" y="0" height="300" width="300" clip-path="url('#clip-path-background-color')" fill="transparent"/><rect x="0" y="0" height="300" width="300" clip-path="url('#clip-path-dot-color')" fill="#000000"/><rect x="5" y="5" height="70" width="70" clip-path="url('#clip-path-corners-square-color-0-0')" fill="#000000"/><rect x="25" y="25" height="30" width="30" clip-path="url('#clip-path-corners-dot-color-0-0')" fill="#000000"/><rect x="225" y="5" height="70" width="70" clip-path="url('#clip-path-corners-square-color-1-0')" fill="#000000"/><rect x="245" y="25" height="30" width="30" clip-path="url('#clip-path-corners-dot-color-1-0')" fill="#000000"/><rect x="5" y="225" height="70" width="70" clip-path="url('#clip-path-corners-square-color-0-1')" fill="#000000"/><rect x="25" y="245" height="30" width="30" clip-path="url('#clip-path-corners-dot-color-0-1')" fill="#000000"/></svg></g></svg><g transform="translate(170,282)scale(0.8)"><style>
               .small696{
                  fill:#ffffff;
                  font-size:20px;
                  font-family: Roboto, sans-serif;
                  }</style><text x="0" y="-11" text-anchor="middle" class="small696">V-TiemChung.com</text></g></svg>